<?xml version="1.0" encoding="UTF-8" standalone="no"?>
<!-- Created with Inkscape (http://www.inkscape.org/) -->

<svg
   version="1.1"
   id="svg2"
   xml:space="preserve"
   width="3700"
   height="3700"
   viewBox="0 0 3700 3700"
   sodipodi:docname="sci_logo_pure_black.svg"
   inkscape:version="1.1.2 (0a00cf5339, 2022-02-04)"
   inkscape:export-filename="/home/pino/projects/scse-app-sci/src/public/sci_logo_white.png"
   inkscape:export-xdpi="96"
   inkscape:export-ydpi="96"
   xmlns:inkscape="http://www.inkscape.org/namespaces/inkscape"
   xmlns:sodipodi="http://sodipodi.sourceforge.net/DTD/sodipodi-0.dtd"
   xmlns="http://www.w3.org/2000/svg"
   xmlns:svg="http://www.w3.org/2000/svg"><defs
     id="defs6" /><sodipodi:namedview
     id="namedview4"
     pagecolor="#ffffff"
     bordercolor="#666666"
     borderopacity="1.0"
     inkscape:pageshadow="2"
     inkscape:pageopacity="0"
     inkscape:pagecheckerboard="true"
     showgrid="false"
     width="3000px"
     fit-margin-top="0"
     fit-margin-left="0"
     fit-margin-right="0"
     fit-margin-bottom="0"
     inkscape:zoom="0.16343919"
     inkscape:cx="1217.5782"
     inkscape:cy="1912.0261"
     inkscape:window-width="1866"
     inkscape:window-height="1016"
     inkscape:window-x="54"
     inkscape:window-y="27"
     inkscape:window-maximized="1"
     inkscape:current-layer="g10" /><g
     id="g8"
     inkscape:groupmode="layer"
     inkscape:label="ink_ext_XXXXXX"
     transform="matrix(1.3333333,0,0,-1.3333333,-474.31392,3852.5879)"><g
       id="g10"
       transform="matrix(0.1,0,0,0.1,-190.16475,-35.789424)"><path
         d="m 19334.002,25276.114 c -5458.652,0 -9900.3114,-4436.509 -9900.3114,-9889.882 0,-5463.2929 4441.6594,-9908.73 9900.3114,-9908.73 5458.652,0 9900.312,4445.4371 9900.312,9908.73 0,5454.366 -4441.66,9889.882 -9900.312,9889.882 z m 0,-20398.8104 c -1415.463,0 -2790.286,277.7778 -4083.829,823.4127 -1250.92,528.7698 -2373.973,1285.7143 -3337.44,2250.0001 -965.449,964.2857 -1722.741,2088.2936 -2252.0529,3340.2776 -549.1362,1296.627 -826.678,2674.603 -826.678,4095.238 0,1416.667 277.5418,2790.675 826.678,4085.318 528.3209,1250 1288.5869,2370.04 2252.0529,3334.325 963.467,962.302 2086.52,1719.246 3337.44,2248.016 1293.543,545.635 2668.366,823.413 4083.829,823.413 1415.463,0 2790.286,-277.778 4083.829,-823.413 1250.921,-527.778 2373.974,-1283.73 3337.44,-2248.016 965.449,-962.301 1722.742,-2085.317 2252.054,-3334.325 549.136,-1292.659 826.678,-2668.651 826.678,-4085.318 0,-1420.635 -277.542,-2797.619 -826.678,-4095.238 C 28479.004,10039.01 27720.72,8915.0021 26755.271,7950.7164 25791.805,6986.4306 24668.752,6229.4861 23417.831,5700.7163 22124.288,5155.0814 20749.465,4877.3036 19334.002,4877.3036 v 0"
         style="fill:#000001;fill-opacity:1;fill-rule:evenodd;stroke:none;stroke-width:0.991642"
         id="path14"
         sodipodi:nodetypes="sssssccccscccscccscccsc" /><path
         d="m 19334.002,23644.169 c -4560.606,0 -8268.762,-3704.365 -8268.762,-8256.945 0,-4563.492 3709.147,-8275.7934 8268.762,-8275.7934 4560.606,0 8268.763,3712.3014 8268.763,8275.7934 0,4552.58 -3709.148,8256.945 -8268.763,8256.945 z m 0,-17133.9289 c -1196.403,0 -2357.122,234.127 -3448.456,696.4286 -1055.65,446.4286 -2004.248,1084.3254 -2820.023,1898.8096 -815.775,814.4838 -1455.112,1763.8887 -1903.144,2820.4367 -462.9,1096.23 -697.819,2259.92 -697.819,3460.317 0,1195.437 233.928,2357.143 697.819,3449.405 448.032,1054.564 1087.369,2001.984 1903.144,2814.484 815.775,812.5 1762.39,1450.397 2820.023,1896.826 1093.316,461.309 2252.053,696.428 3448.456,696.428 1196.404,0 2355.141,-234.127 3448.457,-696.428 1055.65,-446.429 2004.248,-1084.326 2820.023,-1896.826 815.774,-812.5 1455.112,-1759.92 1903.143,-2814.484 462.9,-1092.262 697.82,-2253.968 697.82,-3449.405 0,-1201.389 -233.929,-2364.087 -697.82,-3460.317 -446.049,-1056.548 -1087.369,-2005.9529 -1903.143,-2820.4367 -813.793,-814.4842 -1762.391,-1452.381 -2820.023,-1898.8096 -1091.334,-462.3016 -2252.053,-696.4286 -3448.457,-696.4286 v 0"
         style="fill:#000001;fill-opacity:1;fill-rule:evenodd;stroke:none;stroke-width:0.991642"
         id="path16" /><path
         d="m 19334.002,21954.685 c -164.542,0 -300.34,134.92 -300.34,300.595 v 1688.492 c 0,164.683 134.806,300.595 300.34,300.595 164.543,0 300.34,-134.92 300.34,-300.595 V 22255.28 c 0,-165.675 -135.797,-300.595 -300.34,-300.595"
         style="fill:#000001;fill-opacity:1;fill-rule:evenodd;stroke:none;stroke-width:0.991642"
         id="path18" /><path
         d="m 22765.608,21035.042 c -50.552,0 -103.087,12.897 -149.674,39.683 -144.718,82.341 -193.288,266.865 -111.017,410.714 l 843.529,1463.293 c 82.271,144.842 266.638,193.453 410.365,111.112 144.718,-82.342 193.288,-266.865 111.017,-410.715 l -843.529,-1463.293 c -56.499,-96.231 -157.604,-150.794 -260.691,-150.794"
         style="fill:#000001;fill-opacity:1;fill-rule:evenodd;stroke:none;stroke-width:0.991642"
         id="path20" /><path
         d="m 25277.361,18520.161 c -105.069,0 -206.174,54.563 -260.691,151.786 -82.271,144.841 -31.719,326.389 112.999,408.73 l 1480.884,844.246 c 144.718,82.341 326.112,31.746 408.383,-113.095 82.271,-144.842 31.719,-326.389 -112.008,-408.731 l -1480.884,-844.246 c -46.587,-24.801 -97.139,-38.69 -148.683,-38.69 v 0"
         style="fill:#000001;fill-opacity:1;fill-rule:evenodd;stroke:none;stroke-width:0.991642"
         id="path22" /><path
         d="m 27903.105,15086.629 h -1705.891 c -164.543,0 -300.34,134.921 -300.34,300.595 0,164.683 134.806,300.596 300.34,300.596 h 1705.891 c 164.542,0 300.34,-134.921 300.34,-300.596 -0.992,-165.674 -135.798,-300.595 -300.34,-300.595"
         style="fill:#000001;fill-opacity:1;fill-rule:evenodd;stroke:none;stroke-width:0.991642"
         id="path24" /><path
         d="m 26759.236,10789.01 c -50.552,0 -103.087,12.897 -149.674,41.667 l -1480.884,863.095 c -142.736,82.341 -191.305,266.865 -109.034,410.714 82.271,142.857 266.638,191.468 410.365,109.127 l 1480.884,-863.095 c 142.736,-82.341 191.305,-266.865 109.034,-410.714 -56.499,-98.215 -157.604,-150.794 -260.691,-150.794 v 0"
         style="fill:#000001;fill-opacity:1;fill-rule:evenodd;stroke:none;stroke-width:0.991642"
         id="path26" /><path
         d="m 23609.137,7655.0814 c -105.069,0 -206.174,54.5635 -260.691,151.7857 L 22504.917,9289.01 c -82.271,144.8413 -31.719,326.3889 112.008,408.7302 144.718,82.3413 326.112,31.746 408.383,-112.1032 l 843.529,-1482.1429 c 82.271,-144.8412 31.719,-326.3889 -112.999,-408.7301 -45.597,-26.7858 -96.149,-39.6826 -146.701,-39.6826 v 0"
         style="fill:#000001;fill-opacity:1;fill-rule:evenodd;stroke:none;stroke-width:0.991642"
         id="path28" /><path
         d="m 19334.002,6510.2401 c -164.542,0 -300.34,134.9207 -300.34,300.5953 v 1707.3413 c 0,164.6825 134.806,300.5952 300.34,300.5952 164.543,0 300.34,-134.9206 300.34,-300.5952 V 6810.8354 c 0,-165.6746 -135.797,-300.5953 -300.34,-300.5953"
         style="fill:#000001;fill-opacity:1;fill-rule:evenodd;stroke:none;stroke-width:0.991642"
         id="path30" /><path
         d="m 15058.868,7655.0814 c -50.553,0 -101.105,12.8968 -147.692,39.6826 -144.718,82.3412 -195.271,264.8809 -112.008,408.7301 l 843.529,1482.1429 c 82.271,144.8413 264.656,195.4365 408.382,112.1032 144.719,-82.3413 195.271,-264.881 112.008,-408.7302 l -843.528,-1482.1429 c -54.517,-97.2222 -157.604,-151.7857 -260.691,-151.7857 v 0"
         style="fill:#000001;fill-opacity:1;fill-rule:evenodd;stroke:none;stroke-width:0.991642"
         id="path32" /><path
         d="m 11908.768,10789.01 c -103.087,0 -204.191,52.579 -258.708,149.802 -82.271,142.857 -35.684,326.388 109.034,410.714 l 1480.884,863.095 c 142.736,82.341 326.111,35.714 410.365,-109.127 82.271,-142.857 35.684,-326.389 -109.034,-410.714 l -1480.884,-863.095 c -48.57,-27.778 -101.104,-40.675 -151.657,-40.675 v 0"
         style="fill:#000001;fill-opacity:1;fill-rule:evenodd;stroke:none;stroke-width:0.991642"
         id="path34" /><path
         d="M 12470.791,15086.629 H 10764.9 c -164.543,0 -300.34,134.921 -300.34,300.595 0,164.683 134.806,300.596 300.34,300.596 h 1705.891 c 164.542,0 300.339,-134.921 300.339,-300.596 0,-165.674 -134.806,-300.595 -300.339,-300.595"
         style="fill:#000001;fill-opacity:1;fill-rule:evenodd;stroke:none;stroke-width:0.991642"
         id="path36" /><path
         d="m 13389.652,18520.161 c -50.552,0 -101.104,12.897 -147.692,39.682 l -1480.883,844.247 c -144.719,82.341 -195.271,264.881 -113,408.73 82.272,144.841 264.656,195.436 408.383,113.095 l 1480.884,-844.246 c 144.718,-82.341 195.27,-264.881 112.008,-408.73 -53.526,-98.215 -156.613,-152.778 -259.7,-152.778 v 0"
         style="fill:#000001;fill-opacity:1;fill-rule:evenodd;stroke:none;stroke-width:0.991642"
         id="path38" /><path
         d="m 15902.396,21035.042 c -103.087,0 -204.191,54.563 -260.691,149.802 l -843.528,1463.293 c -82.272,144.842 -33.702,326.389 111.016,410.715 144.719,82.341 326.112,33.73 410.366,-111.112 l 843.528,-1463.293 c 82.272,-144.842 33.702,-326.389 -111.016,-410.715 -46.588,-24.801 -99.122,-38.69 -149.675,-38.69"
         style="fill:#000001;fill-opacity:1;fill-rule:evenodd;stroke:none;stroke-width:0.991642"
         id="path40" /><path
         d="m 19365,16225 c -439,0 -794,-356 -794,-794 0,-439 356,-794 794,-794 439,0 794,356 794,794 0,438 -355,794 -794,794 z m 0,-2194 c -772,0 -1400,628 -1400,1400 0,772 628,1400 1400,1400 772,0 1400,-628 1400,-1400 0,-772 -628,-1400 -1400,-1400"
         style="fill:#000001;fill-opacity:1;fill-rule:evenodd;stroke:none"
         id="path42" /><path
         d="m 19334.002,21954.685 c -3618.946,0 -6562.872,-2946.429 -6562.872,-6568.453 0,-3622.024 2943.926,-6568.4521 6562.872,-6568.4521 3618.947,0 6562.872,2946.4281 6562.872,6568.4521 0,3622.024 -2943.925,6568.453 -6562.872,6568.453 z m 0,-13737.1036 c -967.431,0 -1905.126,189.4842 -2786.321,561.508 -853.441,360.119 -1619.654,875.9921 -2275.843,1532.7376 -1354.007,1351.191 -2100.396,3154.762 -2100.396,5074.405 0,966.27 189.323,1904.762 563.013,2788.691 361.796,854.167 877.23,1620.04 1535.401,2277.778 658.171,658.73 1423.393,1174.603 2275.843,1536.706 883.177,373.016 1820.872,563.492 2786.321,563.492 965.449,0 1903.143,-189.484 2786.321,-563.492 853.441,-362.103 1617.672,-877.976 2275.843,-1536.706 658.17,-658.73 1173.605,-1424.604 1535.4,-2277.778 372.699,-883.929 562.023,-1822.421 562.023,-2788.691 0,-1919.643 -746.39,-3723.214 -2098.415,-5074.405 -658.17,-656.7455 -1423.392,-1172.6186 -2275.842,-1532.7376 -878.222,-372.0238 -1815.916,-561.508 -2783.348,-561.508"
         style="fill:#000001;fill-opacity:1;fill-rule:evenodd;stroke:none;stroke-width:0.991642"
         id="path44" /><path
         d="m 19334.002,16137.224 c -414.33,0 -750.354,-336.309 -750.354,-750.992 0,-414.682 336.024,-750.992 750.354,-750.992 414.33,0 750.354,336.31 750.354,750.992 0,415.675 -336.024,750.992 -750.354,750.992 z m 0,-2102.182 c -744.406,0 -1350.042,606.151 -1350.042,1351.19 0,745.04 605.636,1351.191 1350.042,1351.191 744.407,0 1350.043,-606.151 1350.043,-1351.191 0,-745.039 -605.636,-1351.19 -1350.043,-1351.19"
         style="fill:#000001;fill-opacity:1;fill-rule:evenodd;stroke:none;stroke-width:0.991642"
         id="path46" /><path
         d="m 17181.071,15386.232 1192.438,-2984.127 958.511,-2384.92 960.493,2384.92 1192.438,2984.127 -2150.949,5350.199 z m 2152.931,-6474.2061 c -121.92,0 -232.937,75.3968 -277.542,187.5 l -1237.043,3077.3811 -1238.034,3096.23 c -27.755,71.429 -27.755,151.786 0,223.214 l 2475.077,6155.754 c 44.605,114.088 155.622,187.5 277.542,187.5 121.92,0 232.937,-75.396 277.542,-187.5 l 2475.078,-6155.754 c 27.754,-71.428 27.754,-151.785 0,-223.214 l -1238.035,-3096.23 -1237.043,-3077.3811 c -45.596,-112.1032 -155.622,-187.5 -277.542,-187.5"
         style="fill:#000001;fill-opacity:1;fill-rule:evenodd;stroke:none;stroke-width:0.991642"
         id="path48" /><path
         d="m 17571.612,13322.74 c -37.666,0 -75.333,7.937 -111.017,20.834 l -1312.376,525.793 -3074.766,1239.088 c -113.991,44.642 -187.341,155.753 -187.341,277.777 0,122.024 75.333,233.135 187.341,277.778 l 3074.766,1238.095 1312.376,525.794 c 153.639,61.508 328.094,-12.897 389.55,-166.667 61.456,-153.769 -12.886,-328.373 -166.525,-389.881 l -1312.376,-525.793 -2382.895,-957.342 2382.895,-961.309 1312.376,-525.794 c 153.639,-61.508 228.972,-236.111 166.525,-389.881 -46.587,-117.063 -160.578,-188.492 -278.533,-188.492 z m 3524.781,0 c -117.956,0 -232.937,71.429 -279.525,189.484 -61.455,153.77 12.886,328.373 166.525,389.881 l 1312.377,525.794 2382.894,959.325 -2382.894,961.31 -1312.377,525.794 c -153.639,61.508 -228.972,236.111 -166.525,389.881 61.456,153.769 235.911,229.166 389.55,166.666 l 1312.376,-525.793 3074.767,-1238.096 c 113.99,-44.643 187.34,-155.754 187.34,-277.778 0,-122.023 -75.332,-233.134 -187.34,-277.777 l -3074.767,-1239.088 -1312.376,-525.793 c -34.693,-16.865 -72.359,-23.81 -110.025,-23.81 v 0"
         style="fill:#000001;fill-opacity:1;fill-rule:evenodd;stroke:none;stroke-width:0.991642"
         id="path50" /><path
         d="m 15490.049,16006.272 c -24.781,0 -48.57,3.968 -71.368,8.929 -161.569,39.682 -258.709,202.381 -219.06,364.087 187.341,761.905 579.864,1456.349 1130.983,2009.921 553.101,553.571 1242.99,940.476 1997.309,1118.055 161.569,37.699 322.147,-61.508 361.796,-223.214 39.649,-161.706 -61.456,-322.421 -223.025,-362.103 -1323.279,-313.492 -2353.158,-1343.254 -2685.217,-2689.485 -34.692,-134.92 -156.612,-226.19 -291.418,-226.19 z m 7687.907,0 c -134.806,0 -256.726,92.262 -290.428,229.167 -332.059,1343.254 -1358.963,2374.008 -2685.216,2689.484 -161.569,37.698 -260.691,200.397 -223.025,362.103 37.666,161.706 200.226,260.913 361.795,223.214 753.328,-178.571 1444.209,-564.484 1997.31,-1118.055 553.101,-553.572 943.642,-1248.016 1130.983,-2009.921 39.649,-161.706 -58.482,-322.421 -219.06,-364.087 -25.772,-9.921 -48.57,-11.905 -72.359,-11.905 z m -4781.648,-4766.865 c -22.799,0 -46.588,1.984 -69.386,7.936 -750.354,178.572 -1442.226,566.469 -1997.31,1125.992 -551.118,553.572 -941.659,1246.032 -1130.982,2001.985 -39.649,161.706 58.482,324.404 217.077,364.087 161.569,39.682 324.129,-58.532 363.778,-217.262 332.059,-1325.397 1385.726,-2381.945 2685.217,-2689.484 161.569,-37.699 260.691,-200.397 223.024,-362.103 -32.71,-136.905 -154.63,-231.151 -291.418,-231.151 z m 1875.389,0 c -134.806,0 -258.709,94.246 -292.41,231.151 -37.666,161.706 61.456,322.42 223.025,362.103 1299.49,307.539 2353.157,1364.087 2685.216,2689.484 39.649,161.706 202.209,258.929 363.778,217.262 161.569,-39.683 258.709,-202.381 217.078,-364.087 -189.324,-753.969 -579.865,-1446.429 -1130.983,-2001.985 -557.066,-559.523 -1246.956,-947.42 -1997.31,-1125.992 -23.789,-5.952 -46.587,-7.936 -68.394,-7.936 v 0"
         style="fill:#000001;fill-opacity:1;fill-rule:evenodd;stroke:none;stroke-width:0.991642"
         id="path52" /></g></g></svg>
